#!OML:ASF I:\Actors\actors\Patient Classification 1\Patient 1\Session 1\Subject1.ASF
:FULLY-SPECIFIED
:DEGREES
715
root -0.370523 17.6016 7.27444 8.18695 -1.84977 -7.57718
lowerback 8.16568 2.58099 8.17297
upperback -7.31247 4.54599 -0.89266
thorax -11.896 1.42652 -6.37336
lowerneck -6.63534 -7.70009 -2.05466
upperneck 25.377 -13.5422 11.4197
head 10.1303 -5.34669 2.84726
rclavicle 1.04362e-015 1.90833e-014
rhumerus 18.1699 32.3812 -61.0229
rradius 126.03
rwrist -9.71312
rhand -3.89052 -54.1402
rfingers 7.12502
rthumb 21.8591 -442.926
lclavicle 1.04362e-015 1.90833e-014
lhumerus -49.1931 26.0589 61.5317
lradius 106.684
lwrist 57.1621
lhand -45.1356 -1.40856
lfingers 7.12502
lthumb -17.9141 27.7864
rfemur -1.95339 26.1286 25.2133
rtibia 0.535154
rfoot -10.8332 -23.3704
rtoes 3.17077
lfemur 6.42388 -43.8807 -15.0485
ltibia -4.88769
lfoot -16.7168 50.3318
ltoes 7.29635
716
root -0.37127 17.6012 7.27359 8.15716 -1.86838 -7.62213
lowerback 8.15867 2.63892 8.29468
upperback -7.34213 4.63541 -0.958307
thorax -11.8989 1.45437 -6.52894
lowerneck -6.73604 -7.77139 -1.98952
upperneck 25.7643 -13.7078 11.3901
head 10.3009 -5.39535 2.8049
rclavicle -5.46658e-016 8.74653e-015
rhumerus 17.5453 32.4356 -61.6956
rradius 125.26
rwrist -9.81575
rhand -4.46378 -54.2991
rfingers 7.12502
rthumb 21.3085 -443.148
lclavicle -5.46658e-016 8.74653e-015
lhumerus -49.042 25.9841 61.5634
lradius 106.697
lwrist 57.146
lhand -45.2674 -1.43621
lfingers 7.12502
lthumb -18.0409 27.7471
rfemur -1.91467 26.166 25.2867
rtibia 0.528214
rfoot -10.811 -23.4005
rtoes 3.16085
lfemur 6.46302 -43.824 -15.0083
ltibia -4.90927
lfoot -16.8225 50.3071
ltoes 7.52314
717
root -0.372861 17.5998 7.27355 8.13191 -1.8807 -7.66631
lowerback 8.07839 2.6715 8.41308
upperback -7.36584 4.68429 -1.00644
thorax -11.8581 1.46713 -6.65077
lowerneck -6.83064 -7.81213 -2.03904
upperneck 26.1116 -13.8244 11.4254
head 10.4657 -5.42777 2.81012
rclavicle -3.08116e-015 -1.11319e-014
rhumerus 16.8619 32.5989 -62.4893
rradius 124.139
rwrist -9.87075
rhand -4.84653 -54.0513
rfingers 7.12502
rthumb 20.9409 -442.941
lclavicle -3.08116e-015 -1.11319e-014
lhumerus -49.0038 25.9772 61.5675
lradius 106.763
lwrist 57.1416
lhand -45.5537 -1.54139
lfingers 7.12502
lthumb -18.3164 27.6163
rfemur -1.88055 26.2175 25.3599
rtibia 0.533141
rfoot -10.8157 -23.464
rtoes 3.09346
lfemur 6.48966 -43.7432 -14.9534
ltibia -4.93207
lfoot -16.5979 50.2606
ltoes 7.2276
718
root -0.374147 17.5976 7.2737 8.10589 -1.86604 -7.64072
lowerback 7.92588 2.64752 8.47444
upperback -7.35542 4.64073 -1.04101
thorax -11.754 1.44646 -6.70381
lowerneck -6.91212 -7.80083 -2.1604
upperneck 26.3616 -13.844 11.4751
head 10.59 -5.42708 2.8443
rclavicle 3.42407e-014 3.02153e-014
rhumerus 16.1909 32.9245 -63.3987
rradius 122.717
rwrist -9.94018
rhand -4.8492 -53.6568
rfingers 7.12502
rthumb 20.9383 -442.547
lclavicle 3.42407e-014 3.02153e-014
lhumerus -49.037 26.152 61.5531
lradius 106.825
lwrist 57.0759
lhand -45.6728 -1.54731
lfingers 7.12502
lthumb -18.431 27.5995
rfemur -1.84678 26.228 25.3474
rtibia 0.525112
rfoot -10.827 -23.5137
rtoes 2.99789
lfemur 6.4871 -43.6567 -14.9677
ltibia -4.92669
lfoot -16.4283 50.1528
ltoes 7.03583
719
root -0.376317 17.596 7.27391 8.04775 -1.87938 -7.57195
lowerback 7.8227 2.64856 8.45125
upperback -7.34556 4.62369 -1.08272
thorax -11.6801 1.44335 -6.72541
lowerneck -7.02582 -7.8179 -2.25531
upperneck 26.5787 -13.8867 11.4621
head 10.7037 -5.44134 2.84706
rclavicle -3.67752e-015 -1.35174e-014
rhumerus 15.2897 33.2759 -64.482
rradius 121.064
rwrist -10.0004
rhand -4.58339 -53.2845
rfingers 7.12502
rthumb 21.1937 -442.146
lclavicle -3.67752e-015 -1.35174e-014
lhumerus -49.0443 26.294 61.6156
lradius 106.866
lwrist 57.0109
lhand -45.456 -1.32331
lfingers 7.12502
lthumb -18.2224 27.8431
rfemur -1.77027 26.2185 25.3061
rtibia 0.5086
rfoot -10.8206 -23.5071
rtoes 3.06452
lfemur 6.59399 -43.653 -15.118
ltibia -4.93302
lfoot -16.5563 50.1361
ltoes 7.30098
720
root -0.379319 17.5941 7.27391 7.97376 -1.91936 -7.50994
lowerback 7.73652 2.66727 8.38701
upperback -7.33641 4.62874 -1.10632
thorax -11.6173 1.45456 -6.70864
lowerneck -7.06177 -7.80385 -2.35569
upperneck 26.682 -13.8607 11.4417
head 10.7526 -5.43468 2.85928
rclavicle 3.45885e-014 7.95139e-015
rhumerus 14.2601 33.6839 -65.6383
rradius 119.259
rwrist -10.0154
rhand -4.57945 -52.7237
rfingers 7.12502
rthumb 21.1974 -441.585
lclavicle 3.45885e-014 7.95139e-015
lhumerus -49.0533 26.3374 61.7268
lradius 106.896
lwrist 57.0481
lhand -45.2007 -0.712077
lfingers 7.12502
lthumb -17.9768 28.4771
rfemur -1.6788 26.1782 25.2824
rtibia 0.498124
rfoot -10.7617 -23.4378
rtoes 3.06285
lfemur 6.75302 -43.6516 -15.2923
ltibia -4.95749
lfoot -16.6244 50.1639
ltoes 7.43372
721
root -0.381608 17.5918 7.27309 7.95609 -1.92691 -7.50091
lowerback 7.60689 2.6922 8.39974
upperback -7.32392 4.6487 -1.12562
thorax -11.5177 1.46919 -6.72876
lowerneck -7.13782 -7.77275 -2.4465
upperneck 26.7128 -13.8071 11.4451
head 10.7809 -5.41363 2.87953
rclavicle 5.11871e-015 2.78299e-014
rhumerus 13.2516 34.0517 -66.8086
rradius 117.367
rwrist -10.0047
rhand -4.81221 -52.1727
rfingers 7.12502
rthumb 20.9738 -441.059
lclavicle 5.11871e-015 2.78299e-014
lhumerus -49.0331 26.3179 61.8919
lradius 106.924
lwrist 57.1825
lhand -45.2793 -0.234249
lfingers 7.12502
lthumb -18.0524 28.948
rfemur -1.66142 26.1409 25.2843
rtibia 0.495435
rfoot -10.7485 -23.3709
rtoes 3.10734
lfemur 6.76587 -43.5906 -15.292
ltibia -4.96742
lfoot -16.611 50.1139
ltoes 7.43531
722
root -0.383986 17.5891 7.27311 7.94142 -1.93284 -7.53342
lowerback 7.51531 2.73056 8.44121
upperback -7.33064 4.6959 -1.14077
thorax -11.4575 1.49159 -6.76839
lowerneck -7.37479 -7.77925 -2.4872
upperneck 26.8608 -13.8116 11.3562
head 10.8796 -5.41102 2.84506
rclavicle -5.1684e-015 -8.0309e-014
rhumerus 12.1403 34.4336 -68.0446
rradius 115.442
rwrist -9.93142
rhand -5.27376 -51.5963
rfingers 7.12502
rthumb 20.5304 -440.531
lclavicle -5.1684e-015 -8.0309e-014
lhumerus -49.0487 26.2975 62.0696
lradius 106.955
lwrist 57.2832
lhand -45.4683 -0.227433
lfingers 7.12502
lthumb -18.2342 28.9379
rfemur -1.63391 26.1405 25.3394
rtibia 0.482688
rfoot -10.7343 -23.3403
rtoes 3.05017
lfemur 6.82622 -43.6865 -15.3025
ltibia -4.95179
lfoot -16.8385 50.2004
ltoes 7.73383
723
root -0.387185 17.5858 7.27411 7.89165 -1.94803 -7.52932
lowerback 7.47493 2.7603 8.39335
upperback -7.37169 4.72969 -1.12605
thorax -11.478 1.51033 -6.72906
lowerneck -7.53216 -7.77985 -2.61942
upperneck 27.0242 -13.7887 11.2561
head 10.9713 -5.40932 2.82883
rclavicle -1.81888e-014 2.46493e-014
rhumerus 10.8425 34.9844 -69.3458
rradius 113.609
rwrist -9.71482
rhand -6.08854 -51.0775
rfingers 7.12502
rthumb 19.7472 -440.094
lclavicle -1.81888e-014 2.46493e-014
lhumerus -49.1813 26.3085 62.2498
lradius 106.983
lwrist 57.3017
lhand -45.5513 -0.563788
lfingers 7.12502
lthumb -18.3141 28.5941
rfemur -1.56168 26.1192 25.3744
rtibia 0.469831
rfoot -10.7072 -23.3062
rtoes 2.9648
lfemur 7.00083 -43.9683 -15.4801
ltibia -4.88958
lfoot -17.2169 50.4596
ltoes 8.04266
724
root -0.39026 17.5829 7.27416 7.88144 -1.93196 -7.52891
lowerback 7.39783 2.78343 8.34505
upperback -7.43624 4.75328 -1.10188
thorax -11.506 1.52369 -6.67589
lowerneck -7.61125 -7.76662 -2.82219
upperneck 27.1617 -13.7447 11.2172
head 11.0462 -5.40335 2.85241
rclavicle -7.31031e-014 -5.40694e-014
rhumerus 9.44611 35.5117 -70.732
rradius 111.889
rwrist -9.32846
rhand -6.79284 -50.6775
rfingers 7.12502
rthumb 19.07 -439.763
lclavicle -7.31031e-014 -5.40694e-014
lhumerus -49.319 26.2727 62.4749
lradius 107.014
lwrist 57.4052
lhand -45.6196 -0.784401
lfingers 7.12502
lthumb -18.3798 28.3673
rfemur -1.5614 26.0739 25.3844
rtibia 0.494095
rfoot -10.7884 -23.2609
rtoes 3.19887
lfemur 7.02939 -44.0616 -15.5135
ltibia -4.86192
lfoot -17.2869 50.5357
ltoes 7.98529
